<svg fill="none" height="120" viewBox="0 0 120 120" width="120" xmlns="http://www.w3.org/2000/svg">
  <path d="M60 10c-13.606 0-15.296.067-20.609.289-5.336.267-8.96 1.089-12.139 2.334-3.29 1.29-6.092 3.002-8.848 5.78-2.779 2.757-4.513 5.558-5.78 8.848-1.245 3.179-2.068 6.803-2.334 12.139-.244 5.336-.289 7.025-.289 20.609s.067 15.296.289 20.609c.267 5.336 1.089 8.96 2.334 12.139 1.29 3.29 3.001 6.092 5.78 8.848 2.757 2.779 5.558 4.513 8.848 5.781 3.179 1.222 6.825 2.067 12.139 2.334 5.336.245 7.025.289 20.609.289s15.296-.067 20.609-.289c5.336-.267 8.96-1.112 12.139-2.334 3.29-1.29 6.092-3.002 8.848-5.781 2.779-2.757 4.513-5.558 5.781-8.848 1.222-3.179 2.067-6.825 2.334-12.139.245-5.336.289-7.025.289-20.609s-.067-15.296-.289-20.609c-.267-5.336-1.112-8.982-2.334-12.139-1.29-3.29-3.002-6.092-5.781-8.848-2.757-2.779-5.558-4.513-8.848-5.78-3.179-1.245-6.825-2.068-12.139-2.334C75.296 10.067 73.606 10 60 10zm0 9.004c13.362 0 14.94.067 20.231.289 4.869.222 7.515 1.045 9.271 1.734 2.357.912 3.98 1.979 5.758 3.735 1.734 1.734 2.823 3.402 3.735 5.758.689 1.756 1.512 4.402 1.734 9.271.223 5.269.289 6.87.289 20.231s-.066 14.94-.311 20.231c-.267 4.869-1.067 7.515-1.756 9.271-.956 2.357-2.001 3.98-3.757 5.758-1.756 1.734-3.446 2.824-5.758 3.735-1.734.689-4.424 1.512-9.315 1.734-5.314.223-6.87.289-20.254.289s-14.94-.066-20.254-.311c-4.869-.267-7.559-1.067-9.315-1.756-2.379-.956-4.002-2.001-5.758-3.757-1.756-1.756-2.89-3.446-3.735-5.758-.711-1.734-1.512-4.424-1.756-9.315-.178-5.247-.267-6.87-.267-20.187 0-13.317.089-14.94.267-20.254.267-4.891 1.067-7.559 1.756-9.315.867-2.379 1.979-4.002 3.735-5.758 1.734-1.734 3.379-2.868 5.758-3.757 1.756-.689 4.38-1.49 9.271-1.734C45.06 19.07 46.616 19.004 60 19.004zm0 15.34c-14.206 0-25.678 11.494-25.678 25.678 0 14.206 11.494 25.678 25.678 25.678 14.206 0 25.678-11.494 25.678-25.678 0-14.184-11.494-25.678-25.678-25.678zm0 42.352c-9.226 0-16.674-7.448-16.674-16.674 0-9.226 7.448-16.674 16.674-16.674s16.674 7.448 16.674 16.674c0 9.226-7.448 16.674-16.674 16.674zm32.726-43.375c0 3.335-2.712 6.003-6.003 6.003-3.335 0-6.003-2.69-6.003-6.003s2.712-6.003 6.003-6.003c3.29 0 6.003 2.69 6.003 6.003z" fill="#000"/>
</svg>
