<svg fill="none" height="120" viewBox="0 0 120 120" width="120" xmlns="http://www.w3.org/2000/svg">
  <path d="m59.9889 10c-27.6161 0-49.9889 22.3828-49.9889 50.0111 0 21.2047 13.1749 39.2754 31.7707 46.5439-.4221-3.957-.8442-10.0247.1778-14.3367.9109-3.912 5.8653-24.85 5.8653-24.85s-1.4885-3.0007-1.4885-7.4239c0-6.9571 4.0213-12.1582 9.0424-12.1582 4.2657 0 6.3319 3.2007 6.3319 7.0238 0 4.2898-2.7327 10.7134-4.1546 16.6259-1.1997 4.9789 2.4883 9.0464 7.3983 9.0464 8.887 0 15.7077-9.3798 15.7077-22.8939 0-11.9583-8.6203-20.3379-20.8621-20.3379-14.219 0-22.5505 10.669-22.5505 21.7159 0 4.3121 1.6441 8.9131 3.7103 11.4026.3999.489.4665.9335.3332 1.4447-.3777 1.5782-1.2219 4.9789-1.3997 5.668-.2221.9335-.7109 1.1113-1.6662.689-6.2431-2.9117-10.1311-12.0471-10.1311-19.3599 0-15.7812 11.4419-30.2511 33.0149-30.2511 17.3294 0 30.8153 12.3583 30.8153 28.8731 0 17.226-10.8642 31.118-25.9275 31.118-5.0656 0-9.8201-2.645-11.4419-5.7568 0 0-2.5106 9.5354-3.1105 11.8915-1.133 4.3565-4.1768 9.7795-6.2208 13.0915 4.6878 1.445 9.6423 2.223 14.7967 2.223 27.5939 0 49.9889-22.3828 49.9889-50.0111-.022-27.6061-22.395-49.9889-50.0111-49.9889z" fill="#000"/>
</svg>
